<svg version="1.1" xmlns="http://www.w3.org/2000/svg" viewBox="0 0 1191.5 948" width="1191.5" height="948" filter="invert(93%) hue-rotate(180deg)">
  <!-- svg-source:excalidraw -->
  
  <defs>
    <style class="style-fonts">
      @font-face {
        font-family: "Virgil";
        src: url("https://excalidraw.com/Virgil.woff2");
      }
      @font-face {
        font-family: "Cascadia";
        src: url("https://excalidraw.com/Cascadia.woff2");
      }
      @font-face {
        font-family: "Assistant";
        src: url("https://excalidraw.com/Assistant-Regular.woff2");
      }
    </style>
    
  </defs>
  <rect x="0" y="0" width="1191.5" height="948" fill="#ffffff"></rect><g stroke-linecap="round" transform="translate(10 273) rotate(0 94.5 77)"><path d="M72.67 1.1 C84.13 -2.37, 99.56 -0.94, 112.15 1.09 C124.74 3.13, 137.83 7.4, 148.22 13.31 C158.62 19.22, 167.8 27.52, 174.52 36.56 C181.23 45.59, 186.84 57.16, 188.51 67.52 C190.19 77.89, 188.4 88.7, 184.58 98.75 C180.75 108.81, 173.83 120.03, 165.55 127.85 C157.27 135.67, 146.27 141.4, 134.89 145.68 C123.52 149.96, 110.11 152.98, 97.3 153.52 C84.49 154.06, 70.09 152.81, 58.03 148.92 C45.97 145.03, 33.68 138.09, 24.94 130.17 C16.2 122.26, 9.83 111.39, 5.58 101.44 C1.32 91.5, -1.57 80.88, -0.59 70.5 C0.4 60.11, 5.14 48.13, 11.47 39.15 C17.8 30.18, 26.31 23, 37.39 16.63 C48.48 10.26, 70.18 3.39, 77.98 0.92 C85.78 -1.55, 83.92 0.63, 84.18 1.82 M125.71 5.8 C137.7 8.27, 150.44 15.43, 159.9 22.67 C169.36 29.9, 177.84 39.44, 182.47 49.21 C187.1 58.99, 188.08 70.87, 187.69 81.33 C187.31 91.78, 185.71 102.94, 180.16 111.95 C174.61 120.97, 164.35 129.05, 154.39 135.39 C144.44 141.74, 132.41 147.02, 120.45 150.02 C108.49 153.03, 95.47 154.82, 82.63 153.42 C69.79 152.01, 54.75 146.93, 43.41 141.59 C32.07 136.26, 21.8 129.83, 14.61 121.42 C7.42 113, 2.34 101.69, 0.27 91.1 C-1.79 80.51, -1.33 68.08, 2.22 57.87 C5.76 47.67, 13.56 37.93, 21.53 29.9 C29.5 21.86, 39.01 14.48, 50.04 9.65 C61.07 4.83, 75.05 1.62, 87.72 0.93 C100.39 0.23, 119.66 4.62, 126.06 5.49 C132.47 6.35, 126.75 5.1, 126.16 6.1" stroke="#1e1e1e" stroke-width="1" fill="none"></path></g><g transform="translate(83.48842199525404 337.55277784863586) rotate(0 21.189987182617188 12.5)"><text x="21.189987182617188" y="17.52" font-family="Virgil, Segoe UI Emoji" font-size="20px" fill="#1e1e1e" text-anchor="middle" style="white-space: pre;" direction="ltr" dominant-baseline="alphabetic">Main</text></g><g stroke-linecap="round" transform="translate(592 132) rotate(0 127.5 52)"><path d="M26 0 C101.59 -0.07, 176.35 1.25, 229 0 M26 0 C97.75 -1.32, 169.24 -0.78, 229 0 M229 0 C247.88 0.32, 253.33 7.85, 255 26 M229 0 C248.43 -0.75, 254.74 7.5, 255 26 M255 26 C257.07 41.66, 254.52 58, 255 78 M255 26 C254.36 40.08, 255.92 54.09, 255 78 M255 78 C253 93.93, 246.71 105.1, 229 104 M255 78 C255.1 93.28, 246.74 104.92, 229 104 M229 104 C183.08 102.33, 137.44 101.82, 26 104 M229 104 C186.6 104.1, 144.03 104.45, 26 104 M26 104 C10.18 103.46, 0.26 97.02, 0 78 M26 104 C7.58 102.22, -1.61 95.69, 0 78 M0 78 C-0.32 55.44, -1.22 34.88, 0 26 M0 78 C0.73 60.27, -0.22 43.42, 0 26 M0 26 C-1.57 7.17, 9.11 1.3, 26 0 M0 26 C2.26 8.16, 10.09 0.49, 26 0" stroke="#1e1e1e" stroke-width="1" fill="none"></path></g><g transform="translate(631.0300827026367 171.5) rotate(0 88.46991729736328 12.5)"><text x="88.46991729736328" y="17.52" font-family="Virgil, Segoe UI Emoji" font-size="20px" fill="#1e1e1e" text-anchor="middle" style="white-space: pre;" direction="ltr" dominant-baseline="alphabetic">WorkerCoordinator</text></g><g stroke-linecap="round" transform="translate(339 413) rotate(0 184.5 86.5)"><path d="M32 0 C130.9 0.3, 232.86 -1.46, 337 0 M32 0 C133.76 1.71, 235.92 2.09, 337 0 M337 0 C357.79 -1.64, 369.17 9.47, 369 32 M337 0 C359.27 0.02, 368.56 11.15, 369 32 M369 32 C369.67 68.15, 368.76 104.94, 369 141 M369 32 C369.32 66.71, 369.22 101.46, 369 141 M369 141 C367.5 162.79, 358.17 173.05, 337 173 M369 141 C369.67 162.17, 360.13 173.05, 337 173 M337 173 C269.07 172.5, 201.28 171.11, 32 173 M337 173 C267.12 175.04, 198.19 175.23, 32 173 M32 173 C11.39 173.53, 1.98 162.41, 0 141 M32 173 C12.28 171.61, 1.56 160.76, 0 141 M0 141 C1.52 99.89, -1.05 56.74, 0 32 M0 141 C-1.4 119.96, -0.45 98.01, 0 32 M0 32 C-0.4 8.85, 10.41 -1.58, 32 0 M0 32 C-1.84 9.45, 11.16 1.84, 32 0" stroke="#1e1e1e" stroke-width="1" fill="none"></path></g><g transform="translate(472.30004119873047 487) rotate(0 51.19995880126953 12.5)"><text x="51.19995880126953" y="17.52" font-family="Virgil, Segoe UI Emoji" font-size="20px" fill="#1e1e1e" text-anchor="middle" style="white-space: pre;" direction="ltr" dominant-baseline="alphabetic">MapWorker</text></g><g stroke-linecap="round" transform="translate(812.5 405.5) rotate(0 184.5 86.5)"><path d="M32 0 C126.29 -1.67, 220.02 -2.33, 337 0 M32 0 C132.72 -0.56, 234.5 -0.22, 337 0 M337 0 C360.26 -0.3, 367.13 10.37, 369 32 M337 0 C356.6 1.66, 368.07 12.69, 369 32 M369 32 C371.05 59.15, 369.63 88.71, 369 141 M369 32 C369.26 56.37, 369.25 79.19, 369 141 M369 141 C369.81 161.94, 357.96 174.61, 337 173 M369 141 C368.87 161.98, 359.28 175.05, 337 173 M337 173 C264.09 174.13, 192.28 173.05, 32 173 M337 173 C241.37 171.28, 145.79 171.71, 32 173 M32 173 C11.94 174.63, 1.87 162.21, 0 141 M32 173 C11.98 174.53, -0.66 162.27, 0 141 M0 141 C-1.7 117.86, -1.98 92.23, 0 32 M0 141 C1.84 101.45, 0.21 61.32, 0 32 M0 32 C-1.04 8.9, 9.91 -0.85, 32 0 M0 32 C0.04 12.38, 9.36 -2.1, 32 0" stroke="#1e1e1e" stroke-width="1" fill="none"></path></g><g transform="translate(930.9500579833984 479.5) rotate(0 66.04994201660156 12.5)"><text x="66.04994201660156" y="17.52" font-family="Virgil, Segoe UI Emoji" font-size="20px" fill="#1e1e1e" text-anchor="middle" style="white-space: pre;" direction="ltr" dominant-baseline="alphabetic">ReduceWorker</text></g><g stroke-linecap="round" transform="translate(977 513) rotate(0 99.5 30)"><path d="M15 0 C67.12 4.94, 117.63 -1.13, 184 0 C194.56 -2.46, 198.9 6.18, 199 15 C196.02 23.88, 199.83 37.04, 199 45 C199.31 55.03, 193.43 56.41, 184 60 C128.13 58.69, 74.52 64.37, 15 60 C6.73 61.91, 0.61 58.14, 0 45 C-3.05 33.3, -0.71 29.04, 0 15 C-0.59 4.45, 3.32 2.58, 15 0" stroke="none" stroke-width="0" fill="#a5d8ff"></path><path d="M15 0 C56.71 0.11, 96.51 -2.57, 184 0 M15 0 C69.3 -1.12, 122.09 -0.4, 184 0 M184 0 C194.89 1.78, 200.47 6.98, 199 15 M184 0 C195.48 2.03, 196.99 6.43, 199 15 M199 15 C199.33 23.21, 201 31.19, 199 45 M199 15 C197.92 21.99, 198.73 29.85, 199 45 M199 45 C200.32 54.89, 194.51 59.75, 184 60 M199 45 C198.29 54.38, 193.3 58.77, 184 60 M184 60 C117.54 61.42, 53.53 62.34, 15 60 M184 60 C135.48 59.57, 86.1 59.6, 15 60 M15 60 C3.87 58.57, 0.21 54.26, 0 45 M15 60 C6.47 60.28, 0 54.19, 0 45 M0 45 C-1.25 38.91, 0.94 32.48, 0 15 M0 45 C-0.82 35.61, 1.03 27.12, 0 15 M0 15 C0.87 6.12, 6 1.28, 15 0 M0 15 C0.94 3.9, 6.89 -2.15, 15 0" stroke="#1971c2" stroke-width="1" fill="none"></path></g><g transform="translate(1003.2300643920898 530.5) rotate(0 73.26993560791016 12.5)"><text x="73.26993560791016" y="17.52" font-family="Virgil, Segoe UI Emoji" font-size="20px" fill="#1971c2" text-anchor="middle" style="white-space: pre;" direction="ltr" dominant-baseline="alphabetic">ReduceFunction</text></g><g stroke-linecap="round" transform="translate(498.5 521) rotate(0 99.5 30)"><path d="M15 0 C73.15 -0.32, 138.1 1.56, 184 0 C194.51 -0.05, 195.61 6.08, 199 15 C201.36 23.28, 196.63 36.55, 199 45 C196.04 58.14, 196.38 60.71, 184 60 C132.95 56.25, 76.22 54.78, 15 60 C6.87 57.32, -3.15 52.49, 0 45 C2.48 37.83, 3.57 32.8, 0 15 C2.62 7.8, 5.29 -3.18, 15 0" stroke="none" stroke-width="0" fill="#a5d8ff"></path><path d="M15 0 C58.56 -1.47, 103.41 -1.44, 184 0 M15 0 C67.89 -0.51, 122.22 -0.1, 184 0 M184 0 C194.1 -1.03, 197.9 6.25, 199 15 M184 0 C195.15 -1.55, 197.74 4.81, 199 15 M199 15 C199.73 22.29, 200.68 28.43, 199 45 M199 15 C198.54 23.47, 199.69 34.15, 199 45 M199 45 C200.66 54.5, 192.59 58, 184 60 M199 45 C199.43 53.27, 193.02 58.11, 184 60 M184 60 C127.07 60.59, 67.78 60.25, 15 60 M184 60 C126.18 60.9, 68.29 60.54, 15 60 M15 60 C4.03 60.24, -0.6 53.25, 0 45 M15 60 C5.56 61.84, 1.08 55.55, 0 45 M0 45 C2.01 35.67, 1 25.05, 0 15 M0 45 C-0.17 36.1, 0.88 28.91, 0 15 M0 15 C1.01 3.96, 3.83 -1.33, 15 0 M0 15 C2.08 2.99, 5.1 -1.4, 15 0" stroke="#1971c2" stroke-width="1" fill="none"></path></g><g transform="translate(539.5800476074219 538.5) rotate(0 58.419952392578125 12.5)"><text x="58.419952392578125" y="17.52" font-family="Virgil, Segoe UI Emoji" font-size="20px" fill="#1971c2" text-anchor="middle" style="white-space: pre;" direction="ltr" dominant-baseline="alphabetic">MapFunction</text></g><g stroke-linecap="round" transform="translate(624 854) rotate(0 117.5 42)"><path d="M4.93 5.61 C4.93 5.61, 4.93 5.61, 4.93 5.61 M4.93 5.61 C4.93 5.61, 4.93 5.61, 4.93 5.61 M0.74 16.54 C6.67 12.41, 9.15 4.86, 13.2 2.2 M0.74 16.54 C3.05 13.38, 7.22 10.01, 13.2 2.2 M0.47 22.94 C5.43 17.83, 11.91 9.19, 18.84 1.81 M0.47 22.94 C6.76 15.77, 13.89 8.66, 18.84 1.81 M0.87 28.58 C8.05 17.59, 20.13 8.68, 23.83 2.17 M0.87 28.58 C8.19 19.87, 15.06 11.95, 23.83 2.17 M0.61 34.98 C4.62 27.49, 12.04 20.96, 28.82 2.53 M0.61 34.98 C9.94 24.36, 18.81 14.64, 28.82 2.53 M1 40.62 C9.82 29.84, 18.07 22.26, 34.46 2.13 M1 40.62 C14.22 25.91, 25.32 11.69, 34.46 2.13 M0.74 47.02 C10.57 34.15, 23.97 18.91, 39.45 2.49 M0.74 47.02 C8.43 36.25, 17.93 27.04, 39.45 2.49 M0.48 53.42 C8.78 43.08, 17.79 34.2, 45.09 2.1 M0.48 53.42 C14.97 36.8, 31.07 18.87, 45.09 2.1 M0.87 59.06 C12.48 44.57, 24.46 29.91, 50.08 2.46 M0.87 59.06 C15.22 41.06, 32.14 22.93, 50.08 2.46 M0.61 65.46 C21.11 39.68, 42.43 15.98, 55.72 2.06 M0.61 65.46 C17.06 47.29, 31.78 28.42, 55.72 2.06 M2.32 69.59 C20.65 48.67, 38.74 28.93, 60.71 2.42 M2.32 69.59 C18.12 51.18, 35 32.28, 60.71 2.42 M4.03 73.73 C17.95 58.34, 29.71 42.28, 66.35 2.03 M4.03 73.73 C20.82 53.91, 39.06 34.35, 66.35 2.03 M5.73 77.86 C27.73 48.95, 52.7 23.77, 71.34 2.39 M5.73 77.86 C31.78 48.7, 57.2 20, 71.34 2.39 M8.1 81.24 C23.78 66.66, 36 46.06, 76.98 1.99 M8.1 81.24 C24.94 61.02, 42.79 41.25, 76.98 1.99 M11.77 83.11 C36.76 50.79, 67.76 19.55, 81.97 2.35 M11.77 83.11 C29.5 61.77, 49.42 39.63, 81.97 2.35 M16.76 83.47 C41.68 54.4, 69.2 21.98, 87.61 1.96 M16.76 83.47 C41.43 55.54, 65.09 27.81, 87.61 1.96 M21.09 84.58 C45.92 57.36, 70.16 29.78, 92.6 2.32 M21.09 84.58 C47.65 53.06, 75.16 21.12, 92.6 2.32 M26.73 84.19 C53.85 50.56, 83.15 20.15, 97.59 2.68 M26.73 84.19 C54.11 52.94, 82.31 21.83, 97.59 2.68 M31.72 84.55 C51.2 66.16, 66.61 42.48, 103.23 2.28 M31.72 84.55 C55.93 56.31, 79.6 27.97, 103.23 2.28 M37.36 84.15 C54.42 67.86, 71.28 48.3, 108.22 2.64 M37.36 84.15 C63 54.59, 88.53 23.59, 108.22 2.64 M42.35 84.51 C66.24 57.66, 89.62 30.49, 113.86 2.25 M42.35 84.51 C68.01 51.94, 95.17 22.27, 113.86 2.25 M47.99 84.12 C74.55 55.48, 96.58 28.38, 118.85 2.61 M47.99 84.12 C63.01 65.67, 76.87 50.24, 118.85 2.61 M52.98 84.48 C77.47 57.56, 102.25 27.74, 124.49 2.22 M52.98 84.48 C73.85 59.48, 93.76 37.08, 124.49 2.22 M58.62 84.08 C80.02 63.93, 99.34 39.29, 129.48 2.58 M58.62 84.08 C85.54 52.18, 113.14 21.25, 129.48 2.58 M63.61 84.44 C89.11 56.44, 111.91 30.3, 135.12 2.18 M63.61 84.44 C83.98 61.23, 103.77 37.59, 135.12 2.18 M69.25 84.05 C86.59 61.73, 104.99 42.93, 140.11 2.54 M69.25 84.05 C90.5 60.59, 111.51 36.61, 140.11 2.54 M74.24 84.41 C93.95 57.86, 117.47 33.58, 145.75 2.15 M74.24 84.41 C97.89 55.88, 122.36 30.34, 145.75 2.15 M79.88 84.02 C109.55 51.72, 133.87 17.89, 150.74 2.51 M79.88 84.02 C99.59 60.35, 120.47 38.16, 150.74 2.51 M84.87 84.38 C103.6 63.13, 118.59 44.94, 156.38 2.11 M84.87 84.38 C101.07 66.52, 117.72 47.04, 156.38 2.11 M90.51 83.98 C112.26 57.96, 132.5 34.82, 161.37 2.47 M90.51 83.98 C105.93 65.31, 120.23 47.33, 161.37 2.47 M95.5 84.34 C121.22 52.53, 149.92 24.13, 167.01 2.08 M95.5 84.34 C117.16 59.37, 141.2 33.65, 167.01 2.08 M101.14 83.95 C118.32 64.2, 135.69 41.22, 172 2.44 M101.14 83.95 C124.78 55.78, 149.24 27.76, 172 2.44 M106.13 84.31 C131.5 56, 158.77 28.13, 177.64 2.04 M106.13 84.31 C132.52 53.69, 157.28 24.83, 177.64 2.04 M111.12 84.67 C128.28 65.13, 143.67 45.87, 182.63 2.4 M111.12 84.67 C139.19 51.54, 168.26 19.4, 182.63 2.4 M116.76 84.27 C137.74 56.55, 160.75 31.99, 188.27 2.01 M116.76 84.27 C138.1 60.48, 157.47 35.05, 188.27 2.01 M121.75 84.63 C138.74 60.81, 157.82 41.51, 193.26 2.37 M121.75 84.63 C144.03 60.66, 164.93 35.57, 193.26 2.37 M127.39 84.24 C150.95 54.95, 177.2 26.68, 198.9 1.97 M127.39 84.24 C146.07 64, 164.09 41.85, 198.9 1.97 M132.38 84.6 C155.65 55.17, 179.73 26.44, 203.89 2.33 M132.38 84.6 C149.62 64.74, 168.31 41.97, 203.89 2.33 M138.02 84.2 C156.95 59.06, 176.65 37.29, 208.87 2.69 M138.02 84.2 C164.65 55.21, 189.43 24.3, 208.87 2.69 M143.01 84.56 C162.51 64.37, 179.87 41.74, 215.17 1.54 M143.01 84.56 C163.7 60.77, 184.2 36.58, 215.17 1.54 M148.65 84.17 C168.09 60.73, 189.48 37.34, 220.16 1.91 M148.65 84.17 C172.39 56.06, 195.75 28.47, 220.16 1.91 M153.64 84.53 C175.74 55.49, 202 29.29, 224.49 3.02 M153.64 84.53 C172.94 62.4, 191.01 41.73, 224.49 3.02 M159.28 84.13 C176.54 64.7, 192.69 46.02, 228.17 4.89 M159.28 84.13 C177.25 63.55, 193.35 45.59, 228.17 4.89 M164.27 84.49 C189.34 53.38, 214.54 23.76, 231.84 6.76 M164.27 84.49 C183.77 63.39, 201.65 40.95, 231.84 6.76 M169.91 84.1 C195.61 54.87, 219.23 26.75, 233.55 10.89 M169.91 84.1 C183.39 68.55, 195.97 52.79, 233.55 10.89 M174.9 84.46 C194.4 62.04, 212.46 43.89, 235.25 15.03 M174.9 84.46 C192.71 63.1, 210.91 42.92, 235.25 15.03 M180.54 84.06 C196.4 66.27, 211.99 48.91, 237.62 18.41 M180.54 84.06 C196.99 66.52, 211.98 48.05, 237.62 18.41 M185.53 84.43 C197.19 71.46, 206.54 59.14, 237.36 24.8 M185.53 84.43 C200.07 67.97, 215.24 51.29, 237.36 24.8 M191.17 84.03 C201.76 72.34, 211.09 59.28, 237.75 30.45 M191.17 84.03 C206.81 66.66, 221.56 47.58, 237.75 30.45 M196.16 84.39 C206.43 73.83, 216.5 59.93, 237.49 36.84 M196.16 84.39 C208.76 71.6, 218.62 57.31, 237.49 36.84 M201.8 84 C211.9 73.46, 223.76 61.02, 237.88 42.49 M201.8 84 C208.79 75.55, 218.03 66.46, 237.88 42.49 M206.79 84.36 C214.57 75.31, 224.51 61.26, 237.62 48.88 M206.79 84.36 C215.98 72.64, 226.42 62.36, 237.62 48.88 M212.43 83.96 C218.29 79.51, 223.85 72.54, 238.02 54.53 M212.43 83.96 C222.08 71.28, 233.11 60.72, 238.02 54.53 M216.1 85.83 C219.76 81.03, 226.72 76.53, 235.79 63.19 M216.1 85.83 C221.87 78.43, 228.85 71.33, 235.79 63.19 M223.06 83.93 C227.86 78.26, 230.29 74.5, 234.21 71.1 M223.06 83.93 C225.24 81.07, 229.46 77.31, 234.21 71.1" stroke="#ffec99" stroke-width="0.5" fill="none"></path><path d="M21 0 C79.9 -2.77, 140.85 -3.37, 214 0 M21 0 C90.76 1.68, 159.22 0.9, 214 0 M214 0 C229.62 -1.87, 235.36 6.05, 235 21 M214 0 C228.52 -1.47, 235.4 4.95, 235 21 M235 21 C234.32 34.24, 235.69 51.13, 235 63 M235 21 C235.04 35.77, 235.18 49.94, 235 63 M235 63 C234.22 76.05, 228.72 84.62, 214 84 M235 63 C234.37 76.55, 227.12 84.08, 214 84 M214 84 C164.27 83.78, 116.95 86.87, 21 84 M214 84 C162.09 85.22, 108.75 85.29, 21 84 M21 84 C6.94 85.39, -0.72 77.5, 0 63 M21 84 C8.48 85.07, -2.24 79.06, 0 63 M0 63 C-0.53 50.8, 0.13 39.01, 0 21 M0 63 C0.71 50.11, 0.78 36.47, 0 21 M0 21 C-1.17 8.79, 6.55 -1.53, 21 0 M0 21 C0.22 7.38, 4.82 -0.48, 21 0" stroke="#f08c00" stroke-width="1" fill="none"></path></g><g transform="translate(686.7500534057617 883.5) rotate(0 54.74994659423828 12.5)"><text x="54.74994659423828" y="17.52" font-family="Virgil, Segoe UI Emoji" font-size="20px" fill="#f08c00" text-anchor="middle" style="white-space: pre;" direction="ltr" dominant-baseline="alphabetic">FileStorage</text></g><g mask="url(#mask-ZAYGb3H_msGWrhYygS9I6)" stroke-linecap="round"><g transform="translate(198 321) rotate(0 191.5 -58.5)"><path d="M0.35 -0.37 C63.83 -20.18, 318.04 -98.89, 381.97 -118.19 M-0.92 -1.61 C62.82 -21.37, 320.05 -97.86, 384.15 -117.27" stroke="#e03131" stroke-width="1" fill="none"></path></g><g transform="translate(198 321) rotate(0 191.5 -58.5)"><path d="M364.1 -102.34 C371.3 -109.99, 377.82 -112.6, 384.15 -117.27 M364.1 -102.34 C371.49 -108.77, 378.2 -113.27, 384.15 -117.27" stroke="#e03131" stroke-width="1" fill="none"></path></g><g transform="translate(198 321) rotate(0 191.5 -58.5)"><path d="M359.19 -118.72 C368.41 -119.93, 376.87 -116.1, 384.15 -117.27 M359.19 -118.72 C368.3 -119.13, 376.82 -117.58, 384.15 -117.27" stroke="#e03131" stroke-width="1" fill="none"></path></g></g><mask id="mask-ZAYGb3H_msGWrhYygS9I6"><rect x="0" y="0" fill="#fff" width="681" height="538"></rect><rect x="299.3000717163086" y="250" fill="#000" width="180.3998565673828" height="25" opacity="1"></rect></mask><g transform="translate(299.3000717163086 250) rotate(0 90.31367959449062 11.722041271254426)"><text x="90.1999282836914" y="17.52" font-family="Virgil, Segoe UI Emoji" font-size="20px" fill="#e03131" text-anchor="middle" style="white-space: pre;" direction="ltr" dominant-baseline="alphabetic">1. MapReduceInput</text></g><g mask="url(#mask-KQmBczCF4BjsK57yxi0Dj)" stroke-linecap="round"><g transform="translate(610 243) rotate(0 -28 82.5)"><path d="M-0.1 0.17 C-9.62 27.67, -47.04 137.73, -56.4 165.35 M-1.62 -0.78 C-11.38 26.31, -48.3 135.94, -57.56 163.41" stroke="#e03131" stroke-width="1" fill="none"></path></g><g transform="translate(610 243) rotate(0 -28 82.5)"><path d="M-58.15 138.42 C-57.57 146.68, -57.06 155.83, -57.56 163.41 M-58.15 138.42 C-57.66 146.92, -56.98 157.15, -57.56 163.41" stroke="#e03131" stroke-width="1" fill="none"></path></g><g transform="translate(610 243) rotate(0 -28 82.5)"><path d="M-41.95 143.88 C-47.17 150.18, -52.45 157.37, -57.56 163.41 M-41.95 143.88 C-47.58 150.3, -53.01 158.46, -57.56 163.41" stroke="#e03131" stroke-width="1" fill="none"></path></g></g><mask id="mask-KQmBczCF4BjsK57yxi0Dj"><rect x="0" y="0" fill="#fff" width="766" height="508"></rect><rect x="528.7600479125977" y="313" fill="#000" width="106.47990417480469" height="25" opacity="1"></rect></mask><g transform="translate(528.7600479125977 313) rotate(0 52.40997889154585 12.286080602323636)"><text x="53.239952087402344" y="17.52" font-family="Virgil, Segoe UI Emoji" font-size="20px" fill="#e03131" text-anchor="middle" style="white-space: pre;" direction="ltr" dominant-baseline="alphabetic">2. execute</text></g><g mask="url(#mask-JWmpKQN2bkSq69Jb3gvE3)" stroke-linecap="round"><g transform="translate(623 879.6585365853659) rotate(0 -131.72222222222223 -146.32926829268297)"><path d="M0.19 -0.03 C-40.37 -18.01, -199.88 -59.1, -243.83 -107.71 C-287.79 -156.31, -260.18 -260.82, -263.52 -291.66 M-1.18 -1.09 C-41.3 -19.41, -197.7 -60.6, -241.56 -109.33 C-285.42 -158.06, -260.6 -263.08, -264.32 -293.47" stroke="#e03131" stroke-width="1" fill="none"></path></g><g transform="translate(623 879.6585365853659) rotate(0 -131.72222222222223 -146.32926829268297)"><path d="M-256.7 -269.66 C-258.75 -277.15, -259.07 -281.99, -264.32 -293.47 M-256.7 -269.66 C-259.67 -278.14, -262.09 -287.23, -264.32 -293.47" stroke="#e03131" stroke-width="1" fill="none"></path></g><g transform="translate(623 879.6585365853659) rotate(0 -131.72222222222223 -146.32926829268297)"><path d="M-273.79 -270.34 C-271.45 -277.68, -267.39 -282.34, -264.32 -293.47 M-273.79 -270.34 C-270.21 -278.54, -266.07 -287.37, -264.32 -293.47" stroke="#e03131" stroke-width="1" fill="none"></path></g></g><mask id="mask-JWmpKQN2bkSq69Jb3gvE3"><rect x="0" y="0" fill="#fff" width="986.4444444444445" height="1272.3170731707319"></rect><rect x="284.1700744628906" y="746" fill="#000" width="191.65985107421875" height="50" opacity="1"></rect></mask><g transform="translate(284.1700744628906 746) rotate(0 204.40264080127236 -13.092513019628086)"><text x="95.82992553710938" y="17.52" font-family="Virgil, Segoe UI Emoji" font-size="20px" fill="#e03131" text-anchor="middle" style="white-space: pre;" direction="ltr" dominant-baseline="alphabetic">3. read from input </text><text x="95.82992553710938" y="42.519999999999996" font-family="Virgil, Segoe UI Emoji" font-size="20px" fill="#e03131" text-anchor="middle" style="white-space: pre;" direction="ltr" dominant-baseline="alphabetic">path</text></g><g mask="url(#mask-ZRVudxpYmyVj7SMqhfLEW)" stroke-linecap="round"><g transform="translate(690 596) rotate(0 -15 127)"><path d="M0.46 -0.1 C-1.09 21.06, -4.29 84.7, -9.39 126.93 C-14.49 169.15, -26.58 232.13, -30.12 253.25 M-0.76 -1.2 C-2.4 20.16, -4.99 85.87, -10.02 128.43 C-15.05 170.99, -27.51 233.15, -30.94 254.18" stroke="#e03131" stroke-width="1" fill="none"></path></g><g transform="translate(690 596) rotate(0 -15 127)"><path d="M-35.22 229.55 C-34.14 237.74, -32.84 243.72, -30.94 254.18 M-35.22 229.55 C-33.48 236.34, -33.14 241.95, -30.94 254.18" stroke="#e03131" stroke-width="1" fill="none"></path></g><g transform="translate(690 596) rotate(0 -15 127)"><path d="M-18.39 232.56 C-22.22 239.94, -25.84 245.04, -30.94 254.18 M-18.39 232.56 C-20.64 238.59, -24.3 243.48, -30.94 254.18" stroke="#e03131" stroke-width="1" fill="none"></path></g></g><mask id="mask-ZRVudxpYmyVj7SMqhfLEW"><rect x="0" y="0" fill="#fff" width="820" height="950"></rect><rect x="582.840087890625" y="698" fill="#000" width="194.31982421875" height="50" opacity="1"></rect></mask><g transform="translate(582.840087890625 698) rotate(0 91.91783778615297 24.491455511227286)"><text x="97.159912109375" y="17.52" font-family="Virgil, Segoe UI Emoji" font-size="20px" fill="#e03131" text-anchor="middle" style="white-space: pre;" direction="ltr" dominant-baseline="alphabetic">4. write to output </text><text x="97.159912109375" y="42.519999999999996" font-family="Virgil, Segoe UI Emoji" font-size="20px" fill="#e03131" text-anchor="middle" style="white-space: pre;" direction="ltr" dominant-baseline="alphabetic">path</text></g><g mask="url(#mask-cVcBfve0_LNP_hqqZ9X7z)" stroke-linecap="round"><g transform="translate(648 409) rotate(0 33.5 -86)"><path d="M-1.02 0.36 C6.17 -19.57, 33.14 -91.84, 44.3 -120.55 C55.47 -149.26, 62.23 -163.42, 65.98 -171.89 M0.64 -0.49 C8.13 -20.19, 35.37 -90.96, 46.65 -119.3 C57.93 -147.64, 64.96 -161.47, 68.33 -170.52" stroke="#e03131" stroke-width="1" fill="none"></path></g><g transform="translate(648 409) rotate(0 33.5 -86)"><path d="M67.19 -145.55 C68.44 -156.53, 67.37 -166.91, 68.33 -170.52 M67.19 -145.55 C67.81 -154.16, 68.6 -161.84, 68.33 -170.52" stroke="#e03131" stroke-width="1" fill="none"></path></g><g transform="translate(648 409) rotate(0 33.5 -86)"><path d="M51.41 -152.12 C58.82 -160.38, 63.96 -168.17, 68.33 -170.52 M51.41 -152.12 C56.88 -158.79, 62.55 -164.43, 68.33 -170.52" stroke="#e03131" stroke-width="1" fill="none"></path></g></g><mask id="mask-cVcBfve0_LNP_hqqZ9X7z"><rect x="0" y="0" fill="#fff" width="815" height="681"></rect><rect x="606.4400787353516" y="276.5" fill="#000" width="173.11984252929688" height="25" opacity="1"></rect></mask><g transform="translate(606.4400787353516 276.5) rotate(0 75.21466924734409 46.733422555401916)"><text x="86.55992126464844" y="17.52" font-family="Virgil, Segoe UI Emoji" font-size="20px" fill="#e03131" text-anchor="middle" style="white-space: pre;" direction="ltr" dominant-baseline="alphabetic">5. signal complete</text></g><g mask="url(#mask-nNHDN4y3gD_ogYXmkfVKI)" stroke-linecap="round"><g transform="translate(824 251) rotate(0 25.5 75)"><path d="M-0.55 -0.89 C8.03 24.02, 42.82 125.37, 51.56 150.62 M1.37 1.26 C9.83 26.32, 42.54 124.26, 50.9 148.83" stroke="#e03131" stroke-width="1" fill="none"></path></g><g transform="translate(824 251) rotate(0 25.5 75)"><path d="M35.3 129.29 C38.78 136.27, 46.07 142.76, 50.9 148.83 M35.3 129.29 C40.12 136.69, 46.82 143.7, 50.9 148.83" stroke="#e03131" stroke-width="1" fill="none"></path></g><g transform="translate(824 251) rotate(0 25.5 75)"><path d="M51.51 123.84 C50.09 132.4, 52.42 140.57, 50.9 148.83 M51.51 123.84 C50.6 133.29, 51.55 142.23, 50.9 148.83" stroke="#e03131" stroke-width="1" fill="none"></path></g></g><mask id="mask-nNHDN4y3gD_ogYXmkfVKI"><rect x="0" y="0" fill="#fff" width="975" height="501"></rect><rect x="796.9800491333008" y="313.5" fill="#000" width="105.03990173339844" height="25" opacity="1"></rect></mask><g transform="translate(796.9800491333008 313.5) rotate(0 52.52511892132463 12.367164822295308)"><text x="52.51995086669922" y="17.52" font-family="Virgil, Segoe UI Emoji" font-size="20px" fill="#e03131" text-anchor="middle" style="white-space: pre;" direction="ltr" dominant-baseline="alphabetic">6. execute</text></g><g mask="url(#mask-Mag-putNPnfyXEOBZqi4g)" stroke-linecap="round"><g transform="translate(786 846) rotate(0 43 -125.5)"><path d="M-0.98 1.08 C12.14 -26.57, 63.59 -124.52, 78.01 -166.58 C92.42 -208.64, 84.3 -237.04, 85.52 -251.27 M0.71 0.6 C14.26 -26.84, 66.23 -123.57, 80.2 -165.35 C94.17 -207.13, 83.67 -235.75, 84.51 -250.1" stroke="#e03131" stroke-width="1" fill="none"></path></g><g transform="translate(786 846) rotate(0 43 -125.5)"><path d="M94.9 -227.36 C94.33 -234.58, 89.05 -239.2, 84.51 -250.1 M94.9 -227.36 C92.85 -233.38, 88.94 -239.51, 84.51 -250.1" stroke="#e03131" stroke-width="1" fill="none"></path></g><g transform="translate(786 846) rotate(0 43 -125.5)"><path d="M77.86 -226 C81.4 -233.4, 80.23 -238.35, 84.51 -250.1 M77.86 -226 C80.54 -232.25, 81.35 -238.76, 84.51 -250.1" stroke="#e03131" stroke-width="1" fill="none"></path></g></g><mask id="mask-Mag-putNPnfyXEOBZqi4g"><rect x="0" y="0" fill="#fff" width="972" height="1197"></rect><rect x="770.6000747680664" y="655" fill="#000" width="188.7998504638672" height="50" opacity="1"></rect></mask><g transform="translate(770.6000747680664 655) rotate(0 58.665858678650125 65.90333062820139)"><text x="94.3999252319336" y="17.52" font-family="Virgil, Segoe UI Emoji" font-size="20px" fill="#e03131" text-anchor="middle" style="white-space: pre;" direction="ltr" dominant-baseline="alphabetic">7. read from input </text><text x="94.3999252319336" y="42.519999999999996" font-family="Virgil, Segoe UI Emoji" font-size="20px" fill="#e03131" text-anchor="middle" style="white-space: pre;" direction="ltr" dominant-baseline="alphabetic">path</text></g><g mask="url(#mask-0Ek7pI6obmFNHyz2Lchgu)" stroke-linecap="round"><g transform="translate(1144 597) rotate(0 -139.5 151.00000000000006)"><path d="M0.74 -1.11 C-45.53 49.06, -230.99 251.63, -277.8 301.99 M-0.32 0.92 C-46.64 51.21, -231.88 253.37, -278.12 303.52" stroke="#e03131" stroke-width="1" fill="none"></path></g><g transform="translate(1144 597) rotate(0 -139.5 151.00000000000006)"><path d="M-268.52 280.43 C-272.95 289.14, -273.88 291.95, -278.12 303.52 M-268.52 280.43 C-270.51 285.19, -272.76 290.49, -278.12 303.52" stroke="#e03131" stroke-width="1" fill="none"></path></g><g transform="translate(1144 597) rotate(0 -139.5 151.00000000000006)"><path d="M-255.93 292.01 C-264.08 297.46, -268.64 296.94, -278.12 303.52 M-255.93 292.01 C-260.55 294.17, -265.53 296.95, -278.12 303.52" stroke="#e03131" stroke-width="1" fill="none"></path></g></g><mask id="mask-0Ek7pI6obmFNHyz2Lchgu"><rect x="0" y="0" fill="#fff" width="1523" height="999.0000000000001"></rect><rect x="906.090087890625" y="723" fill="#000" width="196.81982421875" height="50" opacity="1"></rect></mask><g transform="translate(906.090087890625 723) rotate(0 99.22088712775144 25.205112051283947)"><text x="98.409912109375" y="17.52" font-family="Virgil, Segoe UI Emoji" font-size="20px" fill="#e03131" text-anchor="middle" style="white-space: pre;" direction="ltr" dominant-baseline="alphabetic">8. write to output </text><text x="98.409912109375" y="42.519999999999996" font-family="Virgil, Segoe UI Emoji" font-size="20px" fill="#e03131" text-anchor="middle" style="white-space: pre;" direction="ltr" dominant-baseline="alphabetic">path</text></g><g mask="url(#mask-K6i9jqW6lT6l2teiOErf_)" stroke-linecap="round"><g transform="translate(1064 394) rotate(0 -108 -107)"><path d="M-0.54 0.23 C-36.4 -35.44, -179.45 -178.45, -215.5 -214.33 M1.37 -0.69 C-34.57 -36.15, -180.23 -177.37, -216.18 -212.97" stroke="#e03131" stroke-width="1" fill="none"></path></g><g transform="translate(1064 394) rotate(0 -108 -107)"><path d="M-193.41 -202.65 C-199.19 -204.72, -206.32 -209.76, -216.18 -212.97 M-193.41 -202.65 C-198.19 -204.18, -203.32 -206.68, -216.18 -212.97" stroke="#e03131" stroke-width="1" fill="none"></path></g><g transform="translate(1064 394) rotate(0 -108 -107)"><path d="M-205.37 -190.43 C-207.86 -195.77, -211.74 -204.13, -216.18 -212.97 M-205.37 -190.43 C-207.68 -194.48, -210.25 -199.61, -216.18 -212.97" stroke="#e03131" stroke-width="1" fill="none"></path></g></g><mask id="mask-K6i9jqW6lT6l2teiOErf_"><rect x="0" y="0" fill="#fff" width="1380" height="708"></rect><rect x="869.5300750732422" y="274.5" fill="#000" width="172.93984985351562" height="25" opacity="1"></rect></mask><g transform="translate(869.5300750732422 274.5) rotate(0 87.06399324499068 12.451395912840965)"><text x="86.46992492675781" y="17.52" font-family="Virgil, Segoe UI Emoji" font-size="20px" fill="#e03131" text-anchor="middle" style="white-space: pre;" direction="ltr" dominant-baseline="alphabetic">9. signal complete</text></g><g mask="url(#mask-teIcTyAbDPLiDNBKkBWcQ)" stroke-linecap="round"><g transform="translate(602 133) rotate(0 -223 74)"><path d="M0.39 0.21 C-74.03 24.9, -372.09 122.88, -446.46 147.43 M-0.86 -0.73 C-75.48 24.19, -373.38 123.78, -447.65 148.66" stroke="#e03131" stroke-width="1" fill="none"></path></g><g transform="translate(602 133) rotate(0 -223 74)"><path d="M-428.08 133.1 C-433.81 137.15, -441.08 142.99, -447.65 148.66 M-428.08 133.1 C-432.92 136.68, -438.12 141.69, -447.65 148.66" stroke="#e03131" stroke-width="1" fill="none"></path></g><g transform="translate(602 133) rotate(0 -223 74)"><path d="M-422.66 149.32 C-429.93 148.43, -438.86 149.33, -447.65 148.66 M-422.66 149.32 C-428.99 148.7, -435.59 149.52, -447.65 148.66" stroke="#e03131" stroke-width="1" fill="none"></path></g></g><mask id="mask-teIcTyAbDPLiDNBKkBWcQ"><rect x="0" y="0" fill="#fff" width="1148" height="381"></rect><rect x="306.36006927490234" y="194.5" fill="#000" width="145.2798614501953" height="25" opacity="1"></rect></mask><g transform="translate(306.36006927490234 194.5) rotate(0 72.01199622818274 12.465062132384617)"><text x="72.63993072509766" y="17.52" font-family="Virgil, Segoe UI Emoji" font-size="20px" fill="#e03131" text-anchor="middle" style="white-space: pre;" direction="ltr" dominant-baseline="alphabetic">signal complete</text></g><g transform="translate(423 10) rotate(0 263.9297790527344 12.5)"><text x="0" y="17.52" font-family="Virgil, Segoe UI Emoji" font-size="20px" fill="#1971c2" text-anchor="start" style="white-space: pre;" direction="ltr" dominant-baseline="alphabetic">A simple execution flow of my MapReduce framework. </text></g></svg>